<svg width="12" height="12" viewBox="0 0 12 12" fill="none" xmlns="http://www.w3.org/2000/svg">
<path d="M7.32186 5.99945L11.8089 1.51245C12.0647 1.25601 12.0647 0.840895 11.8089 0.584451L11.4149 0.191451C11.1582 -0.063817 10.7435 -0.063817 10.4869 0.191451L5.99986 4.67745L1.51286 0.191451C1.25619 -0.063817 0.841533 -0.063817 0.584862 0.191451L0.191862 0.583451C-0.0639541 0.839895 -0.0639541 1.25501 0.191862 1.51145L4.67886 5.99945L0.191862 10.4835C-0.0634056 10.7401 -0.0634056 11.1548 0.191862 11.4115L0.584862 11.8045C0.841533 12.0597 1.25619 12.0597 1.51286 11.8045L5.99986 7.32045L10.4869 11.8075C10.6096 11.9309 10.7767 12.0001 10.9509 11.9995C11.125 12.0001 11.2921 11.9309 11.4149 11.8075L11.8079 11.4145C12.0631 11.1578 12.0631 10.7431 11.8079 10.4865L7.32186 5.99945Z" fill="#CCCCCC"/>
</svg>
